<svg xmlns="http://www.w3.org/2000/svg" viewBox="0 -5 100 115"><path d="M50 2 C55 12 63 17 67 25 C71 22 73 17 73 12 C83 22 91 37 90 55 C94 58 96 64 94 71 C92 93 74 107 50 107 C26 107 8 93 6 71 C4 64 6 58 10 55 C9 39 18 28 29 20 C31 26 35 29 40 27 C40 17 44 9 50 2 Z" fill="#E8442E"/><path d="M50 20 C54 28 61 32 64 39 C67 37 69 34 69 31 C77 40 82 51 81 64 C84 67 84 72 83 76 C82 93 68 102 50 102 C32 102 18 93 17 76 C16 72 16 67 19 64 C18 52 24 43 32 37 C34 41 37 43 41 42 C41 33 45 26 50 20 Z" fill="#FF8A2B"/><path d="M80 29 C81.9 32.8 83.8 35.2 83.8 38 C83.8 40.4 82.1 42 80 42 C77.9 42 76.2 40.4 76.2 38 C76.2 35.2 78.1 32.8 80 29 Z" fill="#FFB347"/><path d="M50 42 C57 52 71 57 72 74 C73 90 63 99 50 99 C37 99 27 90 28 74 C29 57 43 52 50 42 Z" fill="#FFD15C"/><ellipse cx="41" cy="76" rx="4.2" ry="5.2" fill="#3A140A"/><ellipse cx="59" cy="76" rx="4.2" ry="5.2" fill="#3A140A"/></svg>
